<svg width="355" height="211" viewBox="0 0 355 211" fill="none" xmlns="http://www.w3.org/2000/svg">
<rect width="355" height="211" fill="white"/>
<path d="M293.585 55.2954L298.554 50.4358C299.207 49.7973 300.251 49.7973 300.904 50.4358L304.698 54.1468C305.351 54.7853 306.395 54.7853 307.047 54.1468L310.842 50.4358C311.495 49.7973 312.538 49.7973 313.191 50.4358L316.986 54.1468C317.639 54.7853 318.682 54.7853 319.335 54.1468L323.13 50.4358C323.783 49.7973 324.826 49.7973 325.479 50.4358L329.274 54.1468C329.927 54.7853 330.97 54.7853 331.623 54.1468L336.592 49.2871" stroke="#2B2D42" stroke-width="0.671984"/>
<path d="M166.532 19.3737L170.158 15.8284C170.811 15.1899 171.854 15.1899 172.507 15.8284L174.958 18.225C175.611 18.8635 176.654 18.8635 177.307 18.225L179.758 15.8284C180.41 15.1899 181.454 15.1899 182.107 15.8284L184.557 18.225C185.21 18.8635 186.254 18.8635 186.907 18.225L189.357 15.8284C190.01 15.1899 191.054 15.1899 191.706 15.8284L194.157 18.225C194.81 18.8635 195.853 18.8635 196.506 18.225L200.132 14.6797" stroke="#2B2D42" stroke-width="0.671984"/>
<path d="M162 134.461L165.625 130.915C166.278 130.277 167.322 130.277 167.974 130.915L170.425 133.312C171.078 133.95 172.121 133.95 172.774 133.312L175.225 130.915C175.878 130.277 176.921 130.277 177.574 130.915L180.025 133.312C180.678 133.95 181.721 133.95 182.374 133.312L184.825 130.915C185.478 130.277 186.521 130.277 187.174 130.915L189.625 133.312C190.278 133.95 191.321 133.95 191.974 133.312L195.599 129.767" stroke="#2B2D42" stroke-width="0.671984"/>
<path d="M225 188.694L228.625 185.149C229.278 184.51 230.322 184.51 230.974 185.149L233.425 187.545C234.078 188.184 235.121 188.184 235.774 187.545L238.225 185.149C238.878 184.51 239.921 184.51 240.574 185.149L243.025 187.545C243.678 188.184 244.721 188.184 245.374 187.545L247.825 185.149C248.478 184.51 249.521 184.51 250.174 185.149L252.625 187.545C253.278 188.184 254.321 188.184 254.974 187.545L258.599 184" stroke="#2B2D42" stroke-width="0.671984"/>
<path d="M18.3679 150.093L23.7212 144.858C24.3741 144.219 25.4174 144.219 26.0704 144.858L30.249 148.944C30.9019 149.583 31.9453 149.583 32.5982 148.944L36.7769 144.858C37.4298 144.219 38.4731 144.219 39.126 144.858L43.3047 148.944C43.9576 149.583 45.001 149.583 45.6539 148.944L49.8325 144.858C50.4854 144.219 51.5288 144.219 52.1817 144.858L56.3604 148.944C57.0133 149.583 58.0567 149.583 58.7096 148.944L64.0628 143.709" stroke="#2B2D42" stroke-width="0.671984"/>
<path d="M9.33606 49.2543L12.6729 45.4869C12.9403 45.185 13.4116 45.185 13.679 45.4869L16.5128 48.6864C16.7802 48.9883 17.2515 48.9883 17.5189 48.6864L20.3527 45.4869C20.6202 45.185 21.0914 45.185 21.3588 45.4869L24.1926 48.6864C24.4601 48.9883 24.9313 48.9883 25.1987 48.6864L28.0326 45.4869C28.3 45.185 28.7712 45.185 29.0386 45.4869L31.8725 48.6864C32.1399 48.9883 32.6111 48.9883 32.8785 48.6864L36.2154 44.9189" stroke="#2B2D42" stroke-width="0.671984"/>
<path d="M293.585 119.509L295.955 116.745C296.223 116.432 296.707 116.432 296.975 116.745L298.835 118.914C299.103 119.227 299.587 119.227 299.855 118.914L301.715 116.745C301.983 116.432 302.467 116.432 302.735 116.745L304.595 118.914C304.863 119.227 305.347 119.227 305.615 118.914L307.475 116.745C307.743 116.432 308.227 116.432 308.495 116.745L310.355 118.914C310.623 119.227 311.107 119.227 311.375 118.914L313.745 116.149" stroke="#2B2D42" stroke-width="0.671984"/>
<path d="M55.6368 69.1106L60.5834 77.6784C60.8421 78.1264 60.5188 78.6864 60.0015 78.6864H50.1082C49.5909 78.6864 49.2676 78.1264 49.5263 77.6784L54.4729 69.1106C54.7315 68.6626 55.3781 68.6626 55.6368 69.1106Z" stroke="#2B2D42" stroke-width="0.671984"/>
<path d="M174.626 186.716L178.699 193.772C178.958 194.22 178.635 194.78 178.117 194.78H169.97C169.453 194.78 169.13 194.22 169.388 193.772L173.462 186.716C173.721 186.268 174.367 186.268 174.626 186.716Z" stroke="#2B2D42" stroke-width="0.671984"/>
<path d="M341.542 86.9182L344.161 91.4541C344.419 91.9021 344.096 92.4621 343.579 92.4621H338.341C337.824 92.4621 337.501 91.9021 337.759 91.4541L340.378 86.9182C340.637 86.4703 341.283 86.4703 341.542 86.9182Z" stroke="#2B2D42" stroke-width="0.671984"/>
<path d="M194.096 79.3341L198.252 86.5341C198.739 87.3774 198.131 88.4316 197.157 88.4316H188.843C187.869 88.4316 187.261 87.3774 187.748 86.5341L191.904 79.3341C192.391 78.4908 193.609 78.4908 194.096 79.3341Z" stroke="#2B2D42" stroke-width="0.67"/>
<circle cx="338.72" cy="152.72" r="6.38385" stroke="#2B2D42" stroke-width="0.671984"/>
<circle cx="124.72" cy="93.4862" r="5.01615" stroke="#2B2D42" stroke-width="0.528016"/>
<circle cx="14.864" cy="108.597" r="3.52792" stroke="#2B2D42" stroke-width="0.671984"/>
<circle cx="200" cy="162" r="2.66401" stroke="#2B2D42" stroke-width="0.671984"/>
<circle cx="340.864" cy="15.8639" r="3.52792" stroke="#2B2D42" stroke-width="0.671984"/>
<line x1="69.6949" y1="111.094" x2="85.4866" y2="111.094" stroke="#2B2D42" stroke-width="0.671984" stroke-linejoin="round"/>
<line x1="62.9751" y1="111.094" x2="67.343" y2="111.094" stroke="#2B2D42" stroke-width="0.671984" stroke-linejoin="round"/>
<line x1="313.72" y1="186.664" x2="329.511" y2="186.664" stroke="#2B2D42" stroke-width="0.671984" stroke-linejoin="round"/>
<line x1="307" y1="186.664" x2="311.368" y2="186.664" stroke="#2B2D42" stroke-width="0.671984" stroke-linejoin="round"/>
<line y1="-0.335992" x2="15.7916" y2="-0.335992" transform="matrix(-1 0 0 1 267.865 82.8779)" stroke="#2B2D42" stroke-width="0.671984" stroke-linejoin="round"/>
<line y1="-0.335992" x2="4.36789" y2="-0.335992" transform="matrix(-1 0 0 1 274.585 82.8779)" stroke="#2B2D42" stroke-width="0.671984" stroke-linejoin="round"/>
<line y1="-0.335992" x2="15.7916" y2="-0.335992" transform="matrix(-1 0 0 1 24.7916 14)" stroke="#2B2D42" stroke-width="0.671984" stroke-linejoin="round"/>
<line y1="-0.335992" x2="4.36789" y2="-0.335992" transform="matrix(-1 0 0 1 31.5114 14)" stroke="#2B2D42" stroke-width="0.671984" stroke-linejoin="round"/>
<line x1="121.557" y1="47.6064" x2="160.532" y2="47.6064" stroke="#2B2D42" stroke-width="0.671984" stroke-linejoin="round"/>
<line x1="106.774" y1="47.6064" x2="116.182" y2="47.6064" stroke="#2B2D42" stroke-width="0.671984" stroke-linejoin="round"/>
<line x1="91.9901" y1="47.6064" x2="101.398" y2="47.6064" stroke="#2B2D42" stroke-width="0.671984" stroke-linejoin="round"/>
<line y1="-0.335992" x2="29" y2="-0.335992" transform="matrix(-1 0 0 1 269 154)" stroke="#2B2D42" stroke-width="0.671984" stroke-linejoin="round"/>
<line y1="-0.335992" x2="7" y2="-0.335992" transform="matrix(-1 0 0 1 279 154)" stroke="#2B2D42" stroke-width="0.671984" stroke-linejoin="round"/>
<line y1="-0.335992" x2="7" y2="-0.335992" transform="matrix(-1 0 0 1 289 154)" stroke="#2B2D42" stroke-width="0.671984" stroke-linejoin="round"/>
<line y1="-0.335992" x2="33.5992" y2="-0.335992" transform="matrix(-1 0 0 1 85.8306 189.723)" stroke="#2B2D42" stroke-width="0.671984" stroke-linejoin="round"/>
<line y1="-0.335992" x2="9.40777" y2="-0.335992" transform="matrix(-1 0 0 1 122.118 189.723)" stroke="#2B2D42" stroke-width="0.671984" stroke-linejoin="round"/>
<line y1="-0.335992" x2="13.4397" y2="-0.335992" transform="matrix(-1 0 0 1 105.99 189.723)" stroke="#2B2D42" stroke-width="0.671984" stroke-linejoin="round"/>
<rect x="227.731" y="39.9034" width="9.40777" height="9.40777" rx="0.671984" stroke="#2B2D42" stroke-width="0.671984"/>
<rect x="76.1186" y="12.336" width="7.39182" height="7.39182" rx="0.671984" stroke="#2B2D42" stroke-width="0.671984"/>
<rect x="119.336" y="148.103" width="7.39182" height="7.39182" rx="0.671984" stroke="#2B2D42" stroke-width="0.671984"/>
<rect x="243.336" y="116.103" width="5.32802" height="5.32802" rx="0.671984" stroke="#2B2D42" stroke-width="0.671984"/>
<rect x="16.336" y="180.336" width="5.32802" height="5.32802" rx="0.671984" stroke="#2B2D42" stroke-width="0.671984"/>
<line y1="-0.335992" x2="23.5194" y2="-0.335992" transform="matrix(-1 0 0 1 287.873 16.0244)" stroke="#2B2D42" stroke-width="0.671984" stroke-linejoin="round"/>
<line y1="-0.335992" x2="9.40777" y2="-0.335992" transform="matrix(-1 0 0 1 301.649 16.0244)" stroke="#2B2D42" stroke-width="0.671984" stroke-linejoin="round"/>
</svg>
